<svg width="64" height="64" viewBox="0 0 64 64" fill="none" xmlns="http://www.w3.org/2000/svg">
<path d="M55.653 19.1333C54.7046 18.184 53.5779 17.4315 52.3377 16.9189C51.0975 16.4064 49.7683 16.1439 48.4264 16.1466H36.8264C36.3909 16.1527 35.9606 16.052 35.573 15.8533C35.1883 15.6513 34.8587 15.3584 34.613 15L32.293 11.4533C31.3637 10.042 30.0961 8.88551 28.6058 8.08909C27.1154 7.29267 25.4495 6.88161 23.7597 6.89331H15.5464C14.2042 6.88979 12.8745 7.15157 11.6337 7.66359C10.393 8.17561 9.26571 8.92778 8.31661 9.87688C7.36752 10.826 6.61534 11.9533 6.10332 13.194C5.5913 14.4347 5.32952 15.7644 5.33304 17.1066V46.8666C5.33303 49.5779 6.40823 52.1784 8.32284 54.098C10.2374 56.0176 12.8352 57.0996 15.5464 57.1066H48.4264C51.1379 57.0926 53.7343 56.0093 55.6517 54.0919C57.569 52.1746 58.6524 49.5781 58.6664 46.8666V26.4666C58.6753 25.1056 58.4135 23.7563 57.8961 22.4974C57.3788 21.2384 56.6164 20.0949 55.653 19.1333ZM43.3597 32.0133L32.693 42.68C32.262 43.1271 31.7438 43.4809 31.1704 43.7195C30.597 43.958 29.9807 44.0762 29.3597 44.0666C28.7468 44.0731 28.139 43.9551 27.573 43.72C26.9891 43.4877 26.4618 43.1331 26.0264 42.68L20.693 37.3466C20.2562 36.8365 20.0279 36.1803 20.0538 35.5092C20.0797 34.838 20.358 34.2014 20.8329 33.7265C21.3078 33.2516 21.9444 32.9733 22.6156 32.9474C23.2867 32.9215 23.9429 33.1498 24.453 33.5866L29.333 38.4666L39.6264 28.1733C39.8743 27.9234 40.1692 27.725 40.4942 27.5896C40.8191 27.4542 41.1677 27.3845 41.5197 27.3845C41.8717 27.3845 42.2203 27.4542 42.5452 27.5896C42.8702 27.725 43.1651 27.9234 43.413 28.1733C43.6677 28.4256 43.8689 28.7267 44.0045 29.0586C44.1402 29.3904 44.2075 29.7462 44.2026 30.1046C44.1976 30.4631 44.1204 30.8169 43.9756 31.1448C43.8307 31.4728 43.6213 31.7682 43.3597 32.0133Z" fill="#2A4B80"/>
</svg>
