<svg width="73" height="60" viewBox="0 0 73 60" fill="none" xmlns="http://www.w3.org/2000/svg">
<path d="M46.292 0.975586C49.7209 0.975637 53.1163 1.73829 56.2842 3.2207C59.4522 4.70322 62.3311 6.87687 64.7558 9.61621C67.1804 12.3555 69.1038 15.6075 70.416 19.1865C71.7282 22.7656 72.4033 26.6016 72.4033 30.4756C72.4033 34.3496 71.7282 38.1856 70.416 41.7646C69.1038 45.3437 67.1805 48.5957 64.7558 51.335C62.3311 54.0743 59.4522 56.2479 56.2842 57.7305C53.1163 59.2129 49.7209 59.9755 46.292 59.9756V41.6191C45.2988 44.0228 43.9906 46.2211 42.4131 48.126C40.4935 50.4439 38.2141 52.2827 35.706 53.5371C33.1982 54.7914 30.5104 55.4374 27.7959 55.4375V37.1816C27.6715 37.5548 27.5379 37.9251 27.3926 38.291C26.4084 40.7689 24.966 43.0205 23.1474 44.917C21.3289 46.8134 19.1699 48.3174 16.7939 49.3438C14.418 50.3701 11.8715 50.8984 9.2998 50.8984V39.0947C8.99118 39.6386 8.65452 40.1549 8.28906 40.6377C7.27876 41.9722 6.07881 43.0317 4.75879 43.7539C3.43894 44.476 2.02427 44.8476 0.595703 44.8477V16.1035C2.02426 16.1035 3.43895 16.4752 4.75879 17.1973C6.07881 17.9195 7.27876 18.9789 8.28906 20.3135C8.65436 20.796 8.99129 21.3119 9.2998 21.8555V10.0527C11.8715 10.0528 14.418 10.5811 16.7939 11.6074C19.1699 12.6338 21.3289 14.1378 23.1474 16.0342C24.966 17.9306 26.4084 20.1823 27.3926 22.6602C27.5378 23.0258 27.6716 23.3957 27.7959 23.7686V5.51367C30.5104 5.51373 33.1982 6.15975 35.706 7.41406C38.2141 8.6685 40.4935 10.5073 42.4131 12.8252C43.9904 14.7298 45.2989 16.9277 46.292 19.3311V0.975586Z" fill="#2A4B80"/>
</svg>
