<svg width="40" height="40" viewBox="0 0 40 40" fill="none" xmlns="http://www.w3.org/2000/svg">
<rect x="0.5" y="0.5" width="39" height="39" rx="19.5" stroke="#DCDCDC"/>
<g clip-path="url(#clip0_6257_567)">
<path d="M22.4071 15.5964V17.0287L19.7284 19.7074C19.5697 19.8607 19.5653 20.1135 19.7185 20.2722C19.8718 20.4308 20.1246 20.4352 20.2833 20.282C20.2866 20.2788 20.2899 20.2755 20.2931 20.2722L22.9719 17.5934H24.4041C24.51 17.5934 24.6116 17.5514 24.6864 17.4764L27.0828 15.0801C27.2388 14.9241 27.2388 14.6711 27.0828 14.5151C27.0078 14.4403 26.9063 14.3983 26.8004 14.3982H25.6023V13.2001C25.6022 12.9795 25.4233 12.8008 25.2028 12.8008C25.0969 12.8008 24.9954 12.8429 24.9204 12.9177L22.5241 15.3141C22.4492 15.3889 22.4071 15.4906 22.4071 15.5964Z" fill="#1A1A1A"/>
<path d="M21.2579 17.0476C19.6328 16.3582 17.7566 17.1168 17.0672 18.742C16.3777 20.3671 17.1364 22.2434 18.7615 22.9327C20.3866 23.6222 22.263 22.8637 22.9523 21.2384C23.2908 20.4407 23.2908 19.5397 22.9523 18.742L20.8582 20.8361C20.397 21.3107 19.6384 21.3217 19.1638 20.8606C18.6892 20.3994 18.6782 19.6409 19.1393 19.1663C19.1474 19.158 19.1555 19.1499 19.1638 19.1419L21.2579 17.0476Z" fill="#1A1A1A"/>
<path d="M27.057 16.2351L25.8619 17.4301C27.2818 20.6681 25.8081 24.4441 22.57 25.864C19.3321 27.2839 15.5561 25.8101 14.1361 22.5722C12.7162 19.3341 14.19 15.5581 17.4281 14.1382C19.0668 13.4196 20.9314 13.4196 22.57 14.1382L23.7649 12.943C19.8674 10.8638 15.0223 12.3377 12.9431 16.2351C10.8638 20.1325 12.3376 24.9777 16.2351 27.057C20.1325 29.1362 24.9776 27.6624 27.057 23.7649C28.3122 21.4119 28.3122 18.5882 27.057 16.2351Z" fill="#1A1A1A"/>
<path d="M21.6079 15.5957C21.6074 15.2801 21.7322 14.9771 21.955 14.7534C19.0509 13.667 15.8161 15.1404 14.7295 18.0445C13.6431 20.9485 15.1165 24.1834 18.0205 25.2699C20.9246 26.3563 24.1594 24.8829 25.246 21.9789C25.7206 20.7103 25.7206 19.313 25.246 18.0445C25.0224 18.2672 24.7194 18.3921 24.4037 18.3915H23.6658C24.5563 20.4186 23.635 22.7837 21.6079 23.6742C19.581 24.5648 17.2157 23.6434 16.3252 21.6165C15.4346 19.5894 16.356 17.2243 18.383 16.3336C19.4107 15.8822 20.5803 15.8822 21.6079 16.3336V15.5957Z" fill="#1A1A1A"/>
</g>
<defs>
<clipPath id="clip0_6257_567">
<rect width="16" height="16" fill="white" transform="translate(12 12)"/>
</clipPath>
</defs>
</svg>
