<svg width="40" height="40" viewBox="0 0 40 40" fill="none" xmlns="http://www.w3.org/2000/svg">
<rect x="0.5" y="0.5" width="39" height="39" rx="19.5" stroke="#DCDCDC"/>
<g clip-path="url(#clip0_6257_577)">
<path fill-rule="evenodd" clip-rule="evenodd" d="M22.292 17.6422C21.8841 17.2346 21.3744 16.9439 20.8159 16.8005C20.7122 16.7745 20.6025 16.7905 20.5107 16.8452C20.4188 16.8998 20.3524 16.9886 20.3258 17.092C20.2992 17.1955 20.3146 17.3054 20.3687 17.3975C20.4228 17.4896 20.5112 17.5566 20.6146 17.5838C21.0328 17.6911 21.4145 17.9085 21.7201 18.2136C22.2103 18.7037 22.4243 19.3405 22.3675 20.0256C22.3589 20.1325 22.393 20.2383 22.4623 20.3201C22.5315 20.4019 22.6304 20.4529 22.7372 20.4619C22.7485 20.4629 22.7599 20.4632 22.7713 20.4632C22.8726 20.463 22.9701 20.4248 23.0446 20.3561C23.119 20.2874 23.165 20.1932 23.1733 20.0923C23.25 19.1706 22.9473 18.2974 22.2921 17.6423L22.292 17.6422ZM22.7824 22.7613L22.4994 23.0928C22.2378 23.3924 22.0724 23.7637 22.0247 24.1585L22.0051 24.3201H17.9947L17.9751 24.1586C17.9274 23.7638 17.762 23.3925 17.5004 23.093L17.217 22.7615C16.2471 21.6267 15.8194 20.0648 16.285 18.6206C16.4655 18.0584 16.7777 17.5473 17.1955 17.13C17.9398 16.3874 18.9483 15.9703 19.9997 15.9703C21.0511 15.9703 22.0596 16.3874 22.8039 17.13C23.2222 17.5479 23.5346 18.0597 23.715 18.6228C24.1793 20.0665 23.7509 21.627 22.7824 22.7615V22.7613ZM20.8754 27.8494H19.1732C19.0321 27.8482 18.8971 27.7915 18.7973 27.6917C18.6975 27.5919 18.6409 27.457 18.6396 27.3158V26.877H21.4094V27.3158C21.4081 27.457 21.3514 27.592 21.2515 27.6918C21.1517 27.7916 21.0166 27.8482 20.8754 27.8494L20.8754 27.8494ZM22.0083 25.1285V26.0685H17.991V25.1285H22.0083ZM19.9997 15.0695C20.0927 15.0695 20.1819 15.0326 20.2476 14.9668C20.3134 14.9011 20.3503 14.8119 20.3503 14.7189V12.5015C20.3503 12.4085 20.3134 12.3193 20.2476 12.2536C20.1818 12.1878 20.0927 12.1509 19.9997 12.1509C19.9067 12.1509 19.8175 12.1878 19.7517 12.2536C19.6859 12.3193 19.649 12.4085 19.649 12.5015V14.7189C19.6491 14.8119 19.6861 14.9011 19.7518 14.9668C19.8176 15.0326 19.9067 15.0695 19.9997 15.0696V15.0695ZM17.0341 15.5792C17.0571 15.619 17.0878 15.654 17.1243 15.682C17.1608 15.71 17.2025 15.7305 17.247 15.7424C17.2914 15.7544 17.3378 15.7574 17.3835 15.7514C17.4291 15.7454 17.4731 15.7304 17.513 15.7074C17.5528 15.6844 17.5878 15.6537 17.6158 15.6172C17.6438 15.5807 17.6644 15.539 17.6763 15.4945C17.6882 15.45 17.6912 15.4037 17.6852 15.358C17.6792 15.3124 17.6642 15.2684 17.6412 15.2285L16.5321 13.3076C16.5091 13.2678 16.4785 13.2328 16.4419 13.2048C16.4054 13.1768 16.3637 13.1562 16.3192 13.1443C16.2748 13.1324 16.2284 13.1293 16.1827 13.1353C16.1371 13.1413 16.0931 13.1563 16.0532 13.1793C16.0133 13.2023 15.9784 13.233 15.9504 13.2695C15.9223 13.306 15.9018 13.3477 15.8899 13.3922C15.8779 13.4367 15.8749 13.483 15.8809 13.5287C15.8869 13.5743 15.9019 13.6184 15.9249 13.6582L17.0342 15.5792H17.0341ZM15.642 17.489C15.6883 17.4084 15.7008 17.3128 15.6768 17.223C15.6527 17.1333 15.594 17.0567 15.5135 17.0102L13.5921 15.9008C13.5116 15.8549 13.4162 15.8428 13.3267 15.867C13.2373 15.8913 13.161 15.9499 13.1147 16.0302C13.0684 16.1105 13.0557 16.2058 13.0795 16.2954C13.1033 16.385 13.1615 16.4615 13.2415 16.5083L15.1628 17.6175C15.2027 17.6406 15.2467 17.6556 15.2924 17.6616C15.3381 17.6677 15.3845 17.6646 15.429 17.6527C15.4735 17.6408 15.5153 17.6202 15.5518 17.5921C15.5883 17.564 15.619 17.529 15.642 17.489V17.489ZM14.5681 20.3421C14.6611 20.3421 14.7503 20.3052 14.816 20.2394C14.8818 20.1737 14.9187 20.0845 14.9187 19.9915C14.9187 19.8985 14.8818 19.8093 14.816 19.7436C14.7503 19.6778 14.6611 19.6409 14.5681 19.6409H12.3506C12.2576 19.6409 12.1684 19.6778 12.1027 19.7436C12.0369 19.8093 12 19.8985 12 19.9915C12 20.0845 12.0369 20.1737 12.1027 20.2394C12.1684 20.3052 12.2576 20.3421 12.3506 20.3421H14.5681ZM15.5104 22.5596C15.4639 22.4792 15.3873 22.4205 15.2976 22.3965C15.2079 22.3725 15.1123 22.385 15.0318 22.4314L13.1089 23.5415C13.0684 23.5643 13.0329 23.5948 13.0044 23.6313C12.9758 23.6679 12.9548 23.7097 12.9426 23.7544C12.9303 23.7992 12.927 23.8459 12.9329 23.8919C12.9389 23.9379 12.9539 23.9822 12.977 24.0224C13.0002 24.0626 13.0312 24.0977 13.068 24.1259C13.1049 24.154 13.147 24.1745 13.1919 24.1863C13.2367 24.198 13.2835 24.2007 13.3294 24.1943C13.3753 24.1878 13.4195 24.1723 13.4594 24.1487L15.3823 23.0386C15.4628 22.992 15.5215 22.9154 15.5455 22.8256C15.5695 22.7358 15.5569 22.6401 15.5104 22.5595L15.5104 22.5596ZM26.9737 24.1064C27.02 24.0259 27.0326 23.9302 27.0085 23.8404C26.9844 23.7506 26.9258 23.674 26.8453 23.6274L24.9234 22.5181C24.8836 22.495 24.8396 22.4801 24.7939 22.4741C24.7483 22.4681 24.7019 22.4711 24.6574 22.483C24.613 22.4949 24.5713 22.5155 24.5347 22.5435C24.4982 22.5716 24.4676 22.6065 24.4445 22.6464C24.4215 22.6862 24.4066 22.7302 24.4006 22.7759C24.3946 22.8215 24.3976 22.8679 24.4095 22.9124C24.4214 22.9568 24.442 22.9985 24.47 23.0351C24.498 23.0716 24.533 23.1022 24.5728 23.1253L26.4947 24.2351C26.5753 24.2815 26.671 24.294 26.7608 24.2699C26.8506 24.2458 26.9272 24.1871 26.9738 24.1066L26.9737 24.1064ZM24.0822 13.6624C24.1052 13.6225 24.1202 13.5785 24.1262 13.5329C24.1322 13.4872 24.1292 13.4408 24.1172 13.3964C24.1053 13.3519 24.0848 13.3102 24.0568 13.2737C24.0287 13.2371 23.9938 13.2065 23.9539 13.1835C23.9141 13.1604 23.8701 13.1455 23.8244 13.1395C23.7788 13.1335 23.7324 13.1365 23.6879 13.1484C23.6435 13.1603 23.6018 13.1809 23.5652 13.2089C23.5287 13.2369 23.4981 13.2719 23.475 13.3117L22.3657 15.2327C22.3426 15.2726 22.3277 15.3166 22.3217 15.3623C22.3157 15.408 22.3187 15.4544 22.3307 15.4988C22.3426 15.5433 22.3632 15.585 22.3912 15.6216C22.4193 15.6581 22.4542 15.6887 22.4941 15.7118C22.534 15.7348 22.5781 15.7497 22.6237 15.7557C22.6694 15.7617 22.7158 15.7587 22.7603 15.7467C22.8048 15.7348 22.8465 15.7142 22.883 15.6862C22.9195 15.6581 22.9502 15.6232 22.9732 15.5833L24.082 13.6624H24.0822ZM24.5029 17.038C24.463 17.061 24.4281 17.0917 24.4 17.1282C24.372 17.1647 24.3515 17.2064 24.3396 17.2509C24.3277 17.2954 24.3246 17.3418 24.3306 17.3874C24.3367 17.433 24.3516 17.4771 24.3746 17.5169C24.3977 17.5568 24.4283 17.5917 24.4649 17.6198C24.5014 17.6478 24.5431 17.6683 24.5876 17.6802C24.632 17.6921 24.6784 17.6952 24.7241 17.6892C24.7697 17.6831 24.8137 17.6682 24.8536 17.6452L26.7748 16.5358C26.8547 16.4889 26.9128 16.4124 26.9364 16.3229C26.9601 16.2334 26.9474 16.1382 26.9011 16.058C26.8548 15.9778 26.7786 15.9192 26.6893 15.895C26.5999 15.8708 26.5046 15.8829 26.4241 15.9286L24.5029 17.0378V17.038ZM28 20.0564C28.0001 20.0104 27.991 19.9648 27.9734 19.9222C27.9558 19.8797 27.93 19.841 27.8974 19.8085C27.8649 19.7759 27.8262 19.7501 27.7837 19.7325C27.7411 19.7149 27.6955 19.7058 27.6495 19.7058H25.4323C25.3393 19.7058 25.2501 19.7428 25.1843 19.8085C25.1186 19.8743 25.0817 19.9635 25.0817 20.0564C25.0817 20.1494 25.1186 20.2386 25.1843 20.3043C25.2501 20.3701 25.3393 20.407 25.4323 20.407H27.6495C27.6955 20.4071 27.7411 20.398 27.7837 20.3804C27.8262 20.3628 27.8649 20.337 27.8974 20.3044C27.93 20.2718 27.9558 20.2332 27.9734 20.1906C27.991 20.1481 28.0001 20.1025 28 20.0564Z" fill="#1A1A1A"/>
</g>
<defs>
<clipPath id="clip0_6257_577">
<rect width="16" height="16" fill="white" transform="translate(12 12)"/>
</clipPath>
</defs>
</svg>
